# xmcd
#
# Track frame offsets:
#	150
#	19643
#	47146
#	62867
#	84937
#	104363
#
# Disc length: 1579 seconds
#
# Revision: 0
# Processed by: cddbd v1.5.2PL0 Copyright (c) Steve Scherf et al.
# Submitted via: dBpowerAMP V4.0
#
DISCID=43062906
DTITLE=Tim Buckley - Tim Buckley
DYEAR=2007
DGENRE=Country
TTITLE0=Big City Blues
TTITLE1=Cold Front
TTITLE2=Sad Country Songs
TTITLE3=Troubled Mind
TTITLE4=Farmers Plight
TTITLE5=Set Me Free
EXTD=
EXTT0=
EXTT1=
EXTT2=
EXTT3=
EXTT4=
EXTT5=
PLAYORDER=
